<svg width="63" height="22" viewBox="0 0 63 22" fill="none" xmlns="http://www.w3.org/2000/svg">
<path d="M8.184 0.967999C8.86667 0.967999 9.48533 1.02133 10.04 1.128C10.616 1.21333 11.1173 1.33067 11.544 1.48L14.552 0.872V7.4C13.016 7.35733 11.7787 6.92 10.84 6.088C9.90133 5.256 9.35733 4.11467 9.208 2.664C8.78133 2.57867 8.28 2.536 7.704 2.536C7.49067 2.536 7.30933 2.54667 7.16 2.568C7.032 2.58933 6.91467 2.61067 6.808 2.632L6.488 2.696C6.40267 2.86667 6.328 3.06933 6.264 3.304C6.22133 3.496 6.17867 3.73067 6.136 4.008C6.09333 4.264 6.072 4.552 6.072 4.872C6.072 6.00267 6.31733 6.83467 6.808 7.368C7.32 7.90133 8.14133 8.34933 9.272 8.712C9.93333 8.94667 10.616 9.24533 11.32 9.608C12.024 9.94933 12.664 10.376 13.24 10.888C13.8373 11.4 14.3173 12.008 14.68 12.712C15.064 13.3947 15.256 14.1733 15.256 15.048C15.256 17.2667 14.5733 18.8987 13.208 19.944C11.8427 20.968 9.93333 21.48 7.48 21.48C6.43467 21.48 5.60267 21.416 4.984 21.288C4.36533 21.1813 3.88533 21.0747 3.544 20.968L0.856 21.48V14.312C1.688 14.3333 2.424 14.4933 3.064 14.792C3.704 15.0693 4.248 15.4533 4.696 15.944C5.144 16.4347 5.496 17.0107 5.752 17.672C6.008 18.3333 6.15733 19.0587 6.2 19.848C6.37067 19.8693 6.53067 19.88 6.68 19.88H7.224C7.43733 19.88 7.66133 19.88 7.896 19.88C8.152 19.8587 8.38667 19.8373 8.6 19.816C8.83467 19.7947 9.08 19.7733 9.336 19.752C9.4 19.6027 9.464 19.4107 9.528 19.176C9.57067 18.984 9.61333 18.7387 9.656 18.44C9.69867 18.1413 9.72 17.7787 9.72 17.352C9.72 16.4133 9.496 15.6667 9.048 15.112C8.6 14.536 8.03467 14.0453 7.352 13.64C6.66933 13.2347 5.93333 12.8613 5.144 12.52C4.376 12.1787 3.65067 11.7733 2.968 11.304C2.28533 10.8347 1.72 10.248 1.272 9.544C0.824 8.84 0.6 7.92267 0.6 6.792C0.6 5.96 0.728 5.192 0.984 4.488C1.24 3.784 1.656 3.176 2.232 2.664C2.82933 2.13067 3.608 1.71467 4.568 1.416C5.54933 1.11733 6.75467 0.967999 8.184 0.967999ZM30.0635 3.112C29.8075 3.112 29.5622 3.12267 29.3275 3.144C29.1142 3.144 28.9222 3.15467 28.7515 3.176C28.5382 3.19733 28.3568 3.21867 28.2075 3.24C28.1222 3.432 28.0368 3.656 27.9515 3.912C27.8875 4.14667 27.8342 4.43467 27.7915 4.776C27.7488 5.096 27.7275 5.46933 27.7275 5.896C27.7275 6.344 27.7382 6.74933 27.7595 7.112C27.7808 7.47467 27.8128 7.79467 27.8555 8.072C27.8982 8.392 27.9515 8.68 28.0155 8.936H39.0875V10.792H35.7595V15.208C35.7595 16.3387 35.5888 17.2773 35.2475 18.024C34.9275 18.7707 34.4582 19.368 33.8395 19.816C33.2422 20.264 32.4955 20.584 31.5995 20.776C30.7248 20.968 29.7435 21.064 28.6555 21.064C27.5035 21.064 26.4688 20.9787 25.5515 20.808C24.6342 20.616 23.8662 20.296 23.2475 19.848C22.6288 19.4 22.1488 18.8027 21.8075 18.056C21.4875 17.3093 21.3275 16.3707 21.3275 15.24C21.3275 13.832 21.6475 12.6693 22.2875 11.752C22.9275 10.8133 23.9195 10.184 25.2635 9.864C24.1542 9.544 23.3328 9.064 22.7995 8.424C22.2662 7.784 21.9995 6.92 21.9995 5.832C21.9995 4.14667 22.6502 2.96267 23.9515 2.28C25.2528 1.59733 27.2902 1.256 30.0635 1.256C30.6395 1.256 31.2582 1.30933 31.9195 1.416C32.5808 1.50133 33.1888 1.68267 33.7435 1.96C34.3195 2.216 34.7888 2.58933 35.1515 3.08C35.5355 3.54933 35.7275 4.168 35.7275 4.936V5.16H33.8075V4.968C33.8075 4.584 33.7008 4.27467 33.4875 4.04C33.2742 3.80533 32.9862 3.624 32.6235 3.496C32.2822 3.34667 31.8875 3.25067 31.4395 3.208C30.9915 3.144 30.5328 3.112 30.0635 3.112ZM27.7915 19.048C27.8768 19.0907 27.9622 19.1227 28.0475 19.144C28.2608 19.1867 28.5168 19.208 28.8155 19.208C30.5435 19.208 31.8235 18.8987 32.6555 18.28C33.4875 17.64 33.9035 16.5413 33.9035 14.984V10.792H27.9515C27.8022 11.1973 27.6848 11.6347 27.5995 12.104C27.5142 12.5093 27.4395 12.9787 27.3755 13.512C27.3115 14.0453 27.2795 14.5893 27.2795 15.144C27.2795 15.7413 27.3008 16.2747 27.3435 16.744C27.4075 17.2133 27.4715 17.6187 27.5355 17.96C27.6208 18.344 27.7062 18.7067 27.7915 19.048ZM61.6908 7.848C60.4108 7.848 59.3868 7.61333 58.6188 7.144C57.8721 6.65333 57.2854 6.09867 56.8588 5.48C56.4534 4.86133 56.1868 4.264 56.0588 3.688C55.9308 3.112 55.8561 2.71733 55.8348 2.504C55.4294 2.46133 55.0348 2.44 54.6508 2.44H53.6268C53.2001 2.44 52.8268 2.46133 52.5068 2.504C52.1868 2.52533 51.9094 2.55733 51.6748 2.6C51.4188 2.64267 51.1841 2.68533 50.9708 2.728C50.7788 3.47467 50.6188 4.296 50.4908 5.192C50.3841 5.96 50.2774 6.856 50.1708 7.88C50.0854 8.904 50.0428 9.992 50.0428 11.144C50.0428 12.3173 50.0854 13.416 50.1708 14.44C50.2774 15.4427 50.3841 16.328 50.4908 17.096C50.6188 17.992 50.7788 18.824 50.9708 19.592C51.2054 19.656 51.4614 19.7093 51.7388 19.752C51.9734 19.7947 52.2508 19.8267 52.5708 19.848C52.8908 19.8693 53.2428 19.88 53.6268 19.88C54.0534 19.88 54.5334 19.8373 55.0668 19.752C55.6001 19.6667 56.1228 19.5173 56.6348 19.304V13.256H54.7788V11.4H62.0108V20.872L58.2028 20.456C57.4561 20.8187 56.6668 21.0747 55.8348 21.224C55.0241 21.3947 54.2881 21.48 53.6268 21.48C51.9628 21.48 50.5228 21.2987 49.3068 20.936C48.1121 20.552 47.1201 19.944 46.3308 19.112C45.5628 18.28 44.9868 17.2133 44.6028 15.912C44.2401 14.5893 44.0588 13 44.0588 11.144C44.0588 9.288 44.2401 7.70933 44.6028 6.408C44.9868 5.10667 45.5628 4.04 46.3308 3.208C47.1201 2.376 48.1121 1.77867 49.3068 1.416C50.5228 1.032 51.9628 0.839998 53.6268 0.839998C54.3521 0.839998 55.1734 0.871998 56.0908 0.935999C57.0294 0.978666 57.9148 1.032 58.7468 1.096C59.7281 1.18133 60.7094 1.256 61.6908 1.32V7.848Z" fill="#00012A"/>
</svg>
