<svg width="32" height="32" viewBox="0 0 32 32" fill="none" xmlns="http://www.w3.org/2000/svg">
<path d="M27.6746 7.12667C27.5494 6.98221 27.3945 6.86637 27.2206 6.787C27.0467 6.70764 26.8578 6.6666 26.6666 6.66667H8.24125L7.98125 5.11467C7.92949 4.80333 7.76897 4.52045 7.52824 4.31635C7.28752 4.11224 6.98219 4.00015 6.66659 4H3.66659C3.31296 4 2.97382 4.14048 2.72378 4.39052C2.47373 4.64057 2.33325 4.97971 2.33325 5.33333C2.33325 5.68696 2.47373 6.02609 2.72378 6.27614C2.97382 6.52619 3.31296 6.66667 3.66659 6.66667H5.53725L8.01725 21.552L8.07725 21.7173L8.14925 21.9187L8.30925 22.1573L8.43592 22.3067L8.69325 22.48L8.84259 22.5667C8.99794 22.6305 9.16397 22.6645 9.33192 22.6667H23.9999C24.3535 22.6667 24.6927 22.5262 24.9427 22.2761C25.1928 22.0261 25.3333 21.687 25.3333 21.3333C25.3333 20.9797 25.1928 20.6406 24.9427 20.3905C24.6927 20.1405 24.3535 20 23.9999 20H10.4626L10.2413 18.6667H25.3333C25.6541 18.6667 25.9642 18.5511 26.2067 18.3409C26.4491 18.1308 26.6077 17.8403 26.6533 17.5227L27.9866 8.18933C28.0138 8.00019 28 7.80742 27.9461 7.62407C27.8923 7.44073 27.7997 7.27109 27.6746 7.12667ZM25.1293 9.33333L24.7493 12H19.9999V9.33333H25.1293ZM18.6666 9.33333V12H14.6666V9.33333H18.6666ZM18.6666 13.3333V16H14.6666V13.3333H18.6666ZM13.3333 9.33333V12H9.33325L9.13592 12.04L8.68525 9.33333H13.3333ZM9.35192 13.3333H13.3333V16H9.79592L9.35192 13.3333ZM19.9999 16V13.3333H24.5573L24.1773 16H19.9999Z" fill="#00012A"/>
<path d="M11.3333 28C12.4378 28 13.3333 27.1046 13.3333 26C13.3333 24.8954 12.4378 24 11.3333 24C10.2287 24 9.33325 24.8954 9.33325 26C9.33325 27.1046 10.2287 28 11.3333 28Z" fill="#00012A"/>
<path d="M23.3333 28C24.4378 28 25.3333 27.1046 25.3333 26C25.3333 24.8954 24.4378 24 23.3333 24C22.2287 24 21.3333 24.8954 21.3333 26C21.3333 27.1046 22.2287 28 23.3333 28Z" fill="#00012A"/>
</svg>
